PathFileType	4	(X/Y/Z)	G:\Shared drives\HPL_Drive\Pi-Spi Study\20230118_AMCsubject1\Trimmed_left_horiz_abd01_rotated.trc
DataRate	CameraRate	NumFrames	NumMarkers	Units	OrigDataRate	OrigDataStartFrame	OrigNumFrames
200.00	200.00	       11	35	mm	200.00	1	       200
Frame#	Time	C7			Sternum			r_AMC1			r_AMC2			r_AMC3			l_AMC1			l_AMC2			l_AMC3			PX			T8			r_humerous			r_elbow_medial			r_elbow_lateral			r_forearm			r_wrist_radius			r_wrist_ulna			r_MCP_1			r_MCP_3			l_humerous			l_elbow_medial			l_elbow_lateral			l_forearm			l_wrist_radius			l_wrist_ulna			l_MCP_1			l_MCP_3			r_ASIS			r_PSIS			l_ASIS			l_PSIS			r_IC			l_IC			TS			AI			AA			
		X1	Y1	Z1	X2	Y2	Z2	X3	Y3	Z3	X4	Y4	Z4	X5	Y5	Z5	X6	Y6	Z6	X7	Y7	Z7	X8	Y8	Z8	X9	Y9	Z9	X10	Y10	Z10	X11	Y11	Z11	X12	Y12	Z12	X13	Y13	Z13	X14	Y14	Z14	X15	Y15	Z15	X16	Y16	Z16	X17	Y17	Z17	X18	Y18	Z18	X19	Y19	Z19	X20	Y20	Z20	X21	Y21	Z21	X22	Y22	Z22	X23	Y23	Z23	X24	Y24	Z24	X25	Y25	Z25	X26	Y26	Z26	X27	Y27	Z27	X28	Y28	Z28	X29	Y29	Z29	X30	Y30	Z30	X31	Y31	Z31	X32	Y32	Z32	X33	Y33	Z33	X34	Y34	Z34	X35	Y35	Z35	

1	0	235.0787	1374.1201	-200.958	371.0838	1322.2823	-220.4045	240.9757	1327.1544	-62.5448	275.7327	1332.2103	-27.1163	295.2481	1365.5156	-50.6535	194.4392	1355.5382	-315.0978	215.7738	1375.2914	-357.4541	246.4719	1401.9519	-321.8209	428.0142	1125.4556	-238.3386	194.736	1198.4153	-205.5853	346.2978	1148.9814	-7.0971	272.0217	1007.5068	-23.8966	292.7511	1020.7373	38.8584	349.6533	866.2776	61.6797	397.9084	803.0425	40.6597	352.1733	797.3603	64.1276	421.9518	721.3803	53.8776	374.7409	717.7584	73.0775	265.0435	1348.9241	-509.9329	221.2146	1260.3269	-618.5544	189.1742	1301.4144	-625.2455	161.6814	1315.5491	-780.7383	166.5377	1328.3296	-857.2646	160.7157	1285.6746	-856.8024	147.9216	1330.146	-933.4625	150.2479	1286.4713	-935.1894	389.3863	904.3094	-99.9501	198.694	932.855	-170.3605	375.0041	889.9241	-356.2473	193.5468	927.4767	-272.2168	313.5097	967.7882	-63.9254	289.4699	942.2871	-387.6112	139.8559	1298.4005	-248.5543	151.5843	1201.6881	-275.1233	143.624	1340.2504	-380.5495
2	0.005	235.0592	1374.1182	-200.9429	371.0985	1322.2529	-220.4412	240.9899	1327.1553	-62.5359	275.748	1332.2098	-27.1213	295.3054	1365.4424	-50.6605	194.4256	1355.5298	-315.0794	215.8466	1375.2223	-357.4405	246.4536	1401.927	-321.8002	428.0078	1125.4177	-238.4154	194.738	1198.443	-205.6013	345.9378	1148.6537	-7.5049	272.0212	1007.4841	-23.914	292.7437	1020.677	38.8269	349.6444	866.2589	61.6555	397.3427	802.767	40.1136	352.0818	797.3843	64.1322	421.873	721.3726	53.8462	374.7078	717.615	73.0866	264.9699	1348.9865	-509.941	221.1954	1260.3551	-618.5467	189.1579	1301.4099	-625.2512	161.678	1315.5591	-780.7383	166.5181	1328.3497	-857.2766	160.7119	1285.6964	-856.7863	147.95	1330.1711	-933.4698	150.2692	1286.4533	-935.2177	389.4011	904.2943	-100.0177	198.6786	932.8618	-170.365	374.9492	889.9224	-356.2891	193.511	927.4765	-272.2436	313.5013	967.8292	-63.9644	289.3712	942.3105	-387.6405	139.8153	1298.3501	-248.5441	151.562	1201.6477	-275.1459	143.5731	1340.2809	-380.5401
3	0.01	235.0721	1374.0977	-200.9229	371.0877	1322.252	-220.4475	241.0125	1327.1183	-62.5127	275.7709	1332.2054	-27.1041	295.3095	1365.4236	-50.6443	194.4053	1355.5415	-315.0664	215.8216	1375.2231	-357.4326	246.4175	1401.9354	-321.8044	428.0001	1125.408	-238.4069	194.7288	1198.4166	-205.5919	345.9396	1148.6385	-7.5524	272.045	1007.4862	-23.9358	292.7646	1020.7185	38.837	349.6086	866.2188	61.6399	397.3112	802.7277	40.0847	352.1214	797.2886	64.0858	421.8148	721.2862	53.8589	374.645	717.6762	73.0638	265.0285	1348.8618	-509.9506	221.1593	1260.3665	-618.5539	189.1313	1301.4089	-625.2586	161.6661	1315.5614	-780.7363	166.5395	1328.3496	-857.2651	160.7387	1285.6899	-856.8133	147.9662	1330.1655	-933.4526	150.3152	1286.4938	-935.204	389.3745	904.3324	-99.9974	198.6734	932.8546	-170.3831	374.9465	889.9207	-356.3329	193.4819	927.4881	-272.243	313.5053	967.771	-63.9775	289.3633	942.278	-387.6471	139.807	1298.3077	-248.5182	151.5705	1201.6337	-275.1792	143.5385	1340.2998	-380.5183
4	0.015	235.0596	1374.0942	-200.9173	371.0792	1322.2488	-220.4654	241.0452	1327.1177	-62.5029	275.832	1332.1547	-27.1008	295.3425	1365.4279	-50.6318	194.3918	1355.516	-315.0475	215.6951	1375.2583	-357.4033	246.4041	1401.8965	-321.7911	427.9886	1125.4088	-238.4464	194.7146	1198.4196	-205.582	345.9789	1148.6095	-7.5341	272.0759	1007.4396	-23.9624	292.7505	1020.6552	38.8195	349.672	866.199	61.6872	397.2659	802.6981	40.0875	352.0911	797.2372	64.0758	421.8286	721.1877	53.771	374.596	717.5385	73.0081	264.9458	1348.9159	-509.9709	221.1289	1260.3577	-618.5512	189.1076	1301.4496	-625.2505	161.661	1315.5668	-780.7477	166.5526	1328.3481	-857.2871	160.7378	1285.6956	-856.8002	147.9877	1330.1547	-933.5156	150.3566	1286.4391	-935.2036	389.4045	904.3433	-100.0776	198.6506	932.8699	-170.4001	374.8963	889.9149	-356.3347	193.4535	927.4619	-272.2696	313.5494	967.7593	-64.0226	289.3598	942.2377	-387.6634	139.7887	1298.2739	-248.5036	151.5862	1201.6035	-275.2169	143.4439	1340.2734	-380.509
5	0.02	235.0721	1374.1162	-200.9195	371.086	1322.2379	-220.48	241.0757	1327.0787	-62.4797	275.8528	1332.0985	-27.0779	295.3125	1365.3447	-50.6228	194.3835	1355.5334	-315.0347	215.6884	1375.2648	-357.3885	246.3638	1401.8973	-321.771	427.9762	1125.3685	-238.4936	194.7178	1198.3909	-205.5814	345.9612	1148.6078	-7.5795	272.042	1007.4445	-23.9569	292.7711	1020.6558	38.7974	349.6172	866.1623	61.6949	397.1974	802.688	40.0388	352.0817	797.2178	64.0191	421.7696	721.1251	53.7117	374.619	717.4754	73.0024	264.9291	1348.8977	-509.942	221.119	1260.3573	-618.5511	189.0686	1301.4227	-625.2143	161.6654	1315.5558	-780.745	166.5728	1328.317	-857.2804	160.7495	1285.6853	-856.8079	148.0281	1330.1024	-933.4994	150.3565	1286.4718	-935.2062	389.3997	904.2823	-100.0854	199.0088	932.7455	-170.5109	374.8736	889.9243	-356.3963	193.4439	927.4649	-272.271	313.4949	967.7661	-64.0182	289.2992	942.2352	-387.7021	139.5134	1298.2153	-248.2221	151.5844	1201.5476	-275.2753	143.4126	1340.2793	-380.4924
6	0.025	235.0681	1374.106	-200.8901	371.0948	1322.2163	-220.4822	241.1331	1327.0686	-62.4794	275.8853	1332.106	-27.0955	295.3811	1365.3081	-50.6186	194.3711	1355.5078	-315.0173	215.6463	1375.2705	-357.3861	246.3581	1401.8981	-321.757	427.9711	1125.3596	-238.4905	194.6969	1198.3951	-205.5724	346.0467	1148.4985	-7.6184	272.0294	1007.3917	-23.9712	292.7697	1020.6112	38.7563	349.594	866.1534	61.6486	397.199	802.5901	40.012	352.013	797.1838	64.0319	421.6756	721.0497	53.7147	374.5251	717.4234	72.9686	264.8763	1348.9258	-509.9324	221.0934	1260.3472	-618.5361	189.0672	1301.4176	-625.2449	161.6865	1315.5408	-780.7629	166.6075	1328.2916	-857.3029	160.7739	1285.6473	-856.8155	148.0805	1330.0904	-933.4693	150.3713	1286.3853	-935.1687	389.3382	904.2609	-100.1176	198.9947	932.7265	-170.4978	374.8183	889.8802	-356.416	193.3989	927.4665	-272.2698	313.5701	967.694	-64.0703	289.2353	942.2378	-387.6765	139.4855	1298.1858	-248.2124	151.5993	1201.5726	-275.2322	143.3199	1340.2761	-380.4151
7	0.03	235.0632	1374.1024	-200.8797	371.0732	1322.2078	-220.4753	241.1332	1327.0612	-62.4565	275.8956	1332.0664	-27.041	295.3488	1365.2852	-50.5686	194.3547	1355.4971	-315.0041	215.6753	1375.1725	-357.3484	246.3061	1401.9037	-321.7384	427.9231	1125.3284	-238.5249	194.6993	1198.3868	-205.5609	346.0632	1148.494	-7.6131	272.0237	1007.4139	-23.9617	292.7655	1020.5947	38.7795	349.6131	866.0528	61.607	397.7495	802.7071	40.4859	352.0599	797.0714	63.9973	421.5946	721.0635	53.6599	374.4359	717.432	72.9451	264.9013	1348.8646	-509.9318	221.0781	1260.3218	-618.521	189.0485	1301.4109	-625.2328	161.6889	1315.521	-780.7485	166.6196	1328.2634	-857.2892	160.7673	1285.6193	-856.7903	148.1164	1330.0464	-933.5016	150.3947	1286.371	-935.1752	389.3731	904.2826	-100.2145	198.9879	932.729	-170.5226	374.7773	889.8838	-356.4588	193.3796	927.4603	-272.2789	313.5756	967.7288	-64.0924	289.0981	942.2584	-387.7342	139.4793	1298.1549	-248.1969	151.5405	1201.4768	-275.281	143.3209	1340.2861	-380.4292
8	0.035	235.0699	1374.0971	-200.8767	371.0697	1322.1853	-220.491	241.1744	1327.0588	-62.4306	275.9457	1332.0082	-27.0358	295.4368	1365.2647	-50.6098	194.3294	1355.4804	-315.008	215.5836	1375.2231	-357.3507	246.2575	1401.9296	-321.7435	427.9404	1125.3149	-238.5521	194.6907	1198.3826	-205.5614	346.0635	1148.4822	-7.6368	272.0497	1007.3758	-23.9948	292.7904	1020.5853	38.7335	349.6033	865.9742	61.572	397.7076	802.6366	40.4324	352.0177	797.0794	63.97	421.609	720.9045	53.566	374.3918	717.4388	72.8835	264.8534	1348.9008	-509.897	221.0515	1260.2866	-618.5179	189.0407	1301.4025	-625.1992	161.6993	1315.4711	-780.7701	166.6544	1328.2157	-857.294	160.8012	1285.5625	-856.8042	148.1829	1329.9717	-933.4971	150.4801	1286.309	-935.1681	389.3665	904.2505	-100.2001	198.979	932.7266	-170.5115	374.7495	889.8815	-356.5005	193.3532	927.4638	-272.2915	313.5463	967.7196	-64.1059	289.115	942.1618	-387.7594	139.4507	1298.1362	-248.2012	151.5409	1201.4823	-275.2937	143.2997	1340.2786	-380.4281
9	0.04	235.0636	1374.1005	-200.8527	371.0471	1322.1811	-220.5133	241.1884	1327.0498	-62.4286	275.9746	1332.0311	-27.0479	295.4409	1365.3069	-50.608	194.3336	1355.4928	-314.9902	215.6445	1375.1591	-357.3232	246.2482	1401.9307	-321.7307	427.9206	1125.3043	-238.5699	194.6736	1198.3905	-205.5376	346.0491	1148.4582	-7.637	272.0801	1007.3492	-24.0222	292.7873	1020.5783	38.7157	349.5494	865.9882	61.5656	397.6766	802.6167	40.3897	351.9738	797.054	63.9121	421.5442	720.8836	53.4981	374.338	717.3261	72.8233	264.8419	1348.8825	-509.8778	221.044	1260.2764	-618.4902	189.0475	1301.3622	-625.2072	161.7002	1315.4492	-780.7541	166.6748	1328.1721	-857.2833	160.845	1285.4938	-856.8032	148.1961	1329.8992	-933.4899	150.5004	1286.245	-935.1743	389.3453	904.225	-100.2638	198.9689	932.7269	-170.5167	374.7853	889.9152	-356.4847	193.3355	927.4596	-272.2917	313.5491	967.715	-64.1216	289.0327	942.2038	-387.7594	139.4042	1298.127	-248.1869	151.5341	1201.4565	-275.3158	143.2788	1340.2753	-380.3837
10	0.045	235.0532	1374.0928	-200.8428	371.0573	1322.171	-220.4988	241.2183	1327.0361	-62.4183	275.9675	1332.0319	-27.0165	295.4682	1365.2562	-50.5575	194.3081	1355.4812	-314.9757	215.5715	1375.2355	-357.3504	246.1968	1401.9464	-321.728	427.8922	1125.2839	-238.6057	194.6518	1198.4008	-205.5183	346.1226	1148.3859	-7.6823	272.0866	1007.3397	-24.0395	292.789	1020.5366	38.7001	349.5172	865.9564	61.5207	397.6712	802.5503	40.3515	351.9744	797.0128	63.8761	421.4811	720.8645	53.4774	374.2956	717.3	72.793	264.8397	1348.8983	-509.8991	221.054	1260.2472	-618.4696	189.0482	1301.3306	-625.2115	161.7238	1315.4088	-780.7552	166.7276	1328.1035	-857.2943	160.8309	1285.4569	-856.7935	148.2553	1329.8113	-933.4868	150.5104	1286.1832	-935.1655	390.1325	904.4357	-99.7804	198.5718	932.865	-170.4137	374.7105	889.9031	-356.5164	193.3146	927.4528	-272.2932	313.5802	967.7216	-64.1492	288.9766	942.1895	-387.744	139.4039	1298.1108	-248.2058	151.511	1201.439	-275.2777	143.2679	1340.2788	-380.3936
11	0.05	235.0587	1374.0874	-200.8007	371.0505	1322.1777	-220.4856	241.2491	1327.0471	-62.4132	276.0487	1331.9824	-27.0271	295.4828	1365.2384	-50.544	194.3145	1355.4879	-314.9724	215.5221	1375.2333	-357.3109	246.1535	1401.9679	-321.7029	427.8582	1125.2983	-238.6434	194.6464	1198.411	-205.5072	346.0985	1148.3945	-7.6699	272.0851	1007.3134	-24.0454	292.7889	1020.5388	38.727	349.5471	865.8679	61.4548	397.6404	802.554	40.3057	351.943	797.0107	63.8656	421.4372	720.8369	53.4282	374.3418	717.265	72.7403	264.898	1348.8274	-509.8955	221.042	1260.203	-618.4671	189.0555	1301.3143	-625.1543	161.7233	1315.3606	-780.7552	166.7484	1328.023	-857.295	160.8811	1285.3647	-856.8101	148.2754	1329.7277	-933.4651	150.5334	1286.1434	-935.1732	389.3236	904.1364	-100.3821	198.562	932.853	-170.4178	374.6842	889.9091	-356.5431	193.2923	927.4649	-272.3068	313.5376	967.718	-64.1666	288.8894	942.2679	-387.7996	139.3796	1298.0999	-248.1986	151.4994	1201.4535	-275.2925	143.2828	1340.2733	-380.4031
